<svg data-custom-transform="applied" viewBox="0 0 16 16" xmlns="http://www.w3.org/2000/svg">
  <path
    d="M3.624 1.949 C 3.092 1.993,2.735 2.140,2.437 2.437 C 2.145 2.730,2.004 3.065,1.947 3.603 C 1.912 3.941,1.912 12.059,1.947 12.397 C 2.004 12.935,2.145 13.270,2.437 13.563 C 2.730 13.855,3.065 13.996,3.603 14.053 C 3.927 14.087,5.406 14.087,5.730 14.053 C 6.268 13.996,6.604 13.855,6.896 13.563 C 7.188 13.270,7.329 12.935,7.386 12.397 C 7.422 12.059,7.422 3.941,7.386 3.603 C 7.329 3.065,7.188 2.730,6.896 2.437 C 6.588 2.129,6.253 1.996,5.663 1.947 C 5.296 1.917,3.998 1.918,3.624 1.949 M10.290 1.949 C 9.759 1.993,9.402 2.140,9.104 2.437 C 8.815 2.726,8.676 3.054,8.615 3.587 C 8.577 3.916,8.577 12.084,8.615 12.413 C 8.676 12.946,8.815 13.274,9.104 13.563 C 9.396 13.855,9.732 13.996,10.270 14.053 C 10.594 14.087,12.073 14.087,12.397 14.053 C 12.935 13.996,13.270 13.855,13.563 13.563 C 13.855 13.270,13.996 12.935,14.053 12.397 C 14.088 12.059,14.088 3.941,14.053 3.603 C 13.996 3.065,13.855 2.730,13.563 2.437 C 13.254 2.129,12.919 1.996,12.329 1.947 C 11.962 1.917,10.665 1.918,10.290 1.949 M5.450 3.439 C 5.689 3.455,5.805 3.474,5.832 3.501 C 5.860 3.529,5.879 3.653,5.897 3.937 C 5.931 4.454,5.912 12.271,5.877 12.400 C 5.830 12.571,5.812 12.573,4.720 12.573 C 3.693 12.573,3.510 12.560,3.480 12.485 C 3.428 12.353,3.415 11.457,3.415 8.013 C 3.415 4.189,3.427 3.575,3.502 3.500 C 3.576 3.426,4.737 3.390,5.450 3.439 M12.117 3.439 C 12.356 3.455,12.472 3.474,12.499 3.501 C 12.527 3.529,12.545 3.653,12.564 3.937 C 12.597 4.454,12.578 12.271,12.543 12.400 C 12.497 12.571,12.479 12.573,11.387 12.573 C 10.360 12.573,10.176 12.560,10.147 12.485 C 10.095 12.353,10.082 11.456,10.082 8.000 C 10.082 4.187,10.094 3.575,10.169 3.499 C 10.242 3.426,11.406 3.390,12.117 3.439"
    fill-rule="evenodd"
  />
</svg>
