<svg width="16" height="14" viewBox="0 0 16 14" fill="none" xmlns="http://www.w3.org/2000/svg">
<path d="M9.5 0.75H6C3.69876 0.75 2.54814 0.75 1.7737 1.47637C1.63192 1.60934 1.50192 1.75791 1.38557 1.91994C0.75 2.80502 0.75 4.12001 0.75 6.75C0.75 9.37999 0.75 10.695 1.38557 11.5801C1.50192 11.7421 1.63192 11.8907 1.7737 12.0236C2.54814 12.75 3.69876 12.75 6 12.75H9.5C11.8012 12.75 12.9519 12.75 13.7263 12.0236C13.8681 11.8907 13.9981 11.7421 14.1144 11.5801C14.75 10.695 14.75 9.37999 14.75 6.75C14.75 4.12001 14.75 2.80502 14.1144 1.91994C13.9981 1.75791 13.8681 1.60934 13.7263 1.47637C12.9519 0.75 11.8012 0.75 9.5 0.75Z" stroke="black" stroke-opacity="0.9" style="stroke:black;stroke-opacity:0.9;" stroke-width="1.5" stroke-linecap="round"/>
<path d="M4.4165 6.75L5.08317 6.75" stroke="black" stroke-opacity="0.9" style="stroke:black;stroke-opacity:0.9;" stroke-width="1.5" stroke-linecap="round" stroke-linejoin="round"/>
<path d="M4.4165 4.08325L5.08317 4.08325" stroke="black" stroke-opacity="0.9" style="stroke:black;stroke-opacity:0.9;" stroke-width="1.5" stroke-linecap="round" stroke-linejoin="round"/>
<path d="M7.4165 6.75L8.08317 6.75" stroke="black" stroke-opacity="0.9" style="stroke:black;stroke-opacity:0.9;" stroke-width="1.5" stroke-linecap="round" stroke-linejoin="round"/>
<path d="M7.4165 4.08325L8.08317 4.08325" stroke="black" stroke-opacity="0.9" style="stroke:black;stroke-opacity:0.9;" stroke-width="1.5" stroke-linecap="round" stroke-linejoin="round"/>
<path d="M10.4165 6.75L11.0832 6.75" stroke="black" stroke-opacity="0.9" style="stroke:black;stroke-opacity:0.9;" stroke-width="1.5" stroke-linecap="round" stroke-linejoin="round"/>
<path d="M10.4165 4.08325L11.0832 4.08325" stroke="black" stroke-opacity="0.9" style="stroke:black;stroke-opacity:0.9;" stroke-width="1.5" stroke-linecap="round" stroke-linejoin="round"/>
<path d="M4.4165 9.4165L11.0832 9.4165" stroke="black" stroke-opacity="0.9" style="stroke:black;stroke-opacity:0.9;" stroke-width="1.5" stroke-linecap="round" stroke-linejoin="round"/>
</svg>
