<svg viewBox="0 0 12 12" xmlns="http://www.w3.org/2000/svg">
  <path
    d="M5.660 0.521 C 4.899 0.566,4.190 0.760,3.500 1.111 C 2.479 1.630,1.630 2.479,1.111 3.500 C 0.702 4.303,0.516 5.086,0.516 6.000 C 0.516 6.748,0.635 7.374,0.904 8.050 C 1.386 9.261,2.332 10.295,3.500 10.889 C 4.085 11.187,4.680 11.369,5.332 11.451 C 5.675 11.494,6.325 11.494,6.668 11.451 C 8.173 11.262,9.516 10.479,10.410 9.270 C 10.792 8.753,11.059 8.227,11.248 7.620 C 11.517 6.754,11.562 5.741,11.369 4.842 C 11.027 3.241,9.959 1.853,8.500 1.111 C 7.617 0.662,6.653 0.461,5.660 0.521 M6.720 1.549 C 7.447 1.673,8.126 1.965,8.720 2.408 C 8.964 2.590,9.410 3.036,9.592 3.280 C 10.040 3.880,10.330 4.559,10.454 5.298 C 10.505 5.599,10.505 6.401,10.454 6.702 C 10.330 7.441,10.040 8.120,9.592 8.720 C 9.410 8.964,8.964 9.410,8.720 9.592 C 8.120 10.040,7.441 10.330,6.702 10.454 C 6.401 10.505,5.599 10.505,5.298 10.454 C 4.559 10.330,3.880 10.040,3.280 9.592 C 3.035 9.410,2.589 8.963,2.408 8.720 C 1.955 8.111,1.671 7.445,1.546 6.702 C 1.495 6.401,1.495 5.599,1.546 5.298 C 1.671 4.556,1.955 3.891,2.408 3.280 C 2.588 3.036,3.036 2.588,3.280 2.408 C 3.968 1.898,4.680 1.618,5.560 1.512 C 5.729 1.492,6.537 1.517,6.720 1.549 M5.500 4.845 L 5.500 6.190 6.200 6.890 L 6.900 7.590 7.245 7.245 L 7.590 6.900 7.045 6.355 L 6.500 5.810 6.500 4.655 L 6.500 3.500 6.000 3.500 L 5.500 3.500 5.500 4.845"
    fill-rule="evenodd"
  />
</svg>
