<svg viewBox="0 0 24 24" xmlns="http://www.w3.org/2000/svg">
  <path
    d="M11.580 2.023 C 11.014 2.102,10.810 2.144,10.480 2.249 C 8.809 2.781,7.567 4.123,7.132 5.868 C 7.037 6.247,7.024 6.381,7.022 6.960 C 7.020 7.680,7.060 7.960,7.247 8.540 C 7.505 9.338,7.918 9.994,8.542 10.597 C 10.479 12.472,13.519 12.473,15.455 10.600 C 16.083 9.994,16.507 9.317,16.753 8.532 C 16.952 7.896,16.979 7.711,16.978 6.980 C 16.977 6.377,16.965 6.251,16.869 5.868 C 16.620 4.874,16.145 4.051,15.436 3.384 C 14.743 2.732,13.853 2.272,12.954 2.101 C 12.622 2.038,11.805 1.992,11.580 2.023 M5.760 14.062 C 5.336 14.155,5.017 14.336,4.679 14.677 C 4.132 15.229,4.000 15.623,4.000 16.708 C 4.000 17.777,4.140 18.267,4.629 18.917 C 5.726 20.375,7.366 21.347,9.420 21.757 C 10.341 21.940,10.791 21.979,12.000 21.979 C 13.209 21.979,13.659 21.940,14.580 21.757 C 16.200 21.433,17.562 20.765,18.580 19.792 C 19.267 19.136,19.672 18.578,19.865 18.020 C 19.968 17.720,19.976 17.649,19.992 16.885 C 20.011 15.934,19.980 15.716,19.760 15.260 C 19.504 14.731,19.016 14.304,18.443 14.109 L 18.180 14.020 12.100 14.013 C 6.986 14.007,5.979 14.015,5.760 14.062"
    fill-rule="evenodd"
  />
</svg>
